<svg xmlns="http://www.w3.org/2000/svg" height="652.0" width="1406.0"><desc>{"leftTopX": 6582, "leftTopY": 6634, "rightBottomX": 7988, "rightBottomY": 7246}</desc><g transform="translate(0.5,0.5)"><g class="reference"><polyline fill="none" points="538.0,471.0 538.0,441.0 493.0,441.0 493.0,272.0" stroke="#000000" stroke-linejoin="miter"/><g class="cardinality"><line stroke="#000000" stroke-width="1.0" x1="493.0" x2="487.0" y1="358.0" y2="343.0"/><line stroke="#000000" stroke-width="1.0" x1="493.0" x2="499.0" y1="358.0" y2="343.0"/><g transform="translate(493.0,358.0)"><circle fill="white" r="3.5" stroke="#000000" stroke-width="1.0"/></g></g><g class="mandatory"><line stroke="#000000" stroke-width="1.0" x1="487.0" x2="499.0" y1="411.0" y2="411.0"/></g></g><g class="reference"><polyline fill="none" points="550.0,489.0 550.0,555.0 699.0,555.0" stroke="#000000" stroke-linejoin="miter"/><g class="cardinality"><line stroke="#000000" stroke-width="1.0" x1="674.0" x2="689.0" y1="555.0" y2="549.0"/><line stroke="#000000" stroke-width="1.0" x1="674.0" x2="689.0" y1="555.0" y2="561.0"/><g transform="translate(674.0,555.0)"><circle fill="white" r="3.5" stroke="#000000" stroke-width="1.0"/></g></g><g class="mandatory"><line stroke="#000000" stroke-width="1.0" x1="544.0" x2="556.0" y1="514.0" y2="514.0"/></g></g><g class="reference"><polyline fill="none" points="768.0,573.0 811.0,573.0 811.0,295.0" stroke="#000000" stroke-linejoin="miter"/><g class="cardinality"><line stroke="#000000" stroke-width="1.0" x1="811.0" x2="805.0" y1="331.0" y2="316.0"/><line stroke="#000000" stroke-width="1.0" x1="811.0" x2="817.0" y1="331.0" y2="316.0"/><g transform="translate(811.0,331.0)"><circle fill="white" r="3.5" stroke="#000000" stroke-width="1.0"/></g></g><g class="mandatory"><line stroke="#000000" stroke-width="1.0" x1="805.0" x2="817.0" y1="490.0" y2="490.0"/></g></g><g class="reference"><polyline fill="none" points="837.0,280.0 837.0,143.0 591.0,143.0" stroke="#000000" stroke-linejoin="miter"/><g class="cardinality"><line stroke="#000000" stroke-width="1.0" x1="805.0" x2="790.0" y1="143.0" y2="137.0"/><line stroke="#000000" stroke-width="1.0" x1="805.0" x2="790.0" y1="143.0" y2="149.0"/><g transform="translate(805.0,143.0)"><circle fill="white" r="3.5" stroke="#000000" stroke-width="1.0"/></g></g><g class="mandatory"><line stroke="#000000" stroke-width="1.0" x1="831.0" x2="843.0" y1="227.0" y2="227.0"/></g></g><g class="reference"><polyline fill="none" points="1101.0,538.0 1014.0,538.0 1014.0,398.0 998.0,398.0" stroke="#000000" stroke-linejoin="miter"/><g class="cardinality"><line stroke="#000000" stroke-width="1.0" x1="1014.0" x2="1008.0" y1="448.0" y2="433.0"/><line stroke="#000000" stroke-width="1.0" x1="1014.0" x2="1020.0" y1="448.0" y2="433.0"/><g transform="translate(1014.0,448.0)"><circle fill="white" r="3.5" stroke="#000000" stroke-width="1.0"/></g></g><g class="mandatory"><line stroke="#000000" stroke-width="1.0" x1="1008.0" x2="1020.0" y1="498.0" y2="498.0"/></g></g><g class="reference"><polyline fill="none" points="808.0,305.0 983.0,305.0 983.0,384.0 1024.0,384.0" stroke="#000000" stroke-linejoin="miter"/><g class="cardinality"><line stroke="#000000" stroke-width="1.0" x1="983.0" x2="977.0" y1="358.0" y2="373.0"/><line stroke="#000000" stroke-width="1.0" x1="983.0" x2="989.0" y1="358.0" y2="373.0"/><g transform="translate(983.0,358.0)"><circle fill="white" r="3.5" stroke="#000000" stroke-width="1.0"/></g></g><g class="mandatory"><line stroke="#000000" stroke-width="1.0" x1="953.0" x2="953.0" y1="299.0" y2="311.0"/></g></g><g class="reference"><polyline fill="none" points="339.0,392.0 350.0,392.0 350.0,291.0 408.0,291.0" stroke="#000000" stroke-linejoin="miter"/><g class="cardinality"><line stroke="#000000" stroke-width="1.0" x1="369.0" x2="384.0" y1="291.0" y2="285.0"/><line stroke="#000000" stroke-width="1.0" x1="369.0" x2="384.0" y1="291.0" y2="297.0"/><g transform="translate(369.0,291.0)"><circle fill="white" r="3.5" stroke="#000000" stroke-width="1.0"/></g></g><g class="mandatory"><line stroke="#000000" stroke-width="1.0" x1="344.0" x2="356.0" y1="352.0" y2="352.0"/></g></g><g class="reference"><polyline fill="none" points="534.0,290.0 534.0,148.0 587.0,148.0 587.0,149.0" stroke="#000000" stroke-linejoin="miter"/><g class="cardinality"><line stroke="#000000" stroke-width="1.0" x1="549.0" x2="564.0" y1="148.0" y2="142.0"/><line stroke="#000000" stroke-width="1.0" x1="549.0" x2="564.0" y1="148.0" y2="154.0"/><g transform="translate(549.0,148.0)"><circle fill="white" r="3.5" stroke="#000000" stroke-width="1.0"/></g></g><g class="mandatory"><line stroke="#000000" stroke-width="1.0" x1="528.0" x2="540.0" y1="241.0" y2="241.0"/></g></g><g class="table" transform="translate(462.0,426.0)"><g transform="translate(0.0,0.0)"><rect fill="#f0f0f0" height="20.0" width="150.0"/></g><g transform="translate(0.0,0.0)"><text fill="black" font-family="arial, sans-serif" font-size="12" font-weight="700" text-anchor="middle" x="76.0" y="14.190625">busLine</text></g><g transform="translate(0.0,20.0)"><rect fill="#ffffff" height="53.0" width="150.0"/><g transform="translate(4.0,3.0)"><g transform="translate(0.0,0.0)"><text fill="black" font-family="arial, sans-serif" font-size="12" font-weight="400" x="1.0" y="11.138671875">id</text></g><g transform="translate(0.0,14.0)"><text fill="black" font-family="arial, sans-serif" font-size="12" font-weight="400" x="1.0" y="11.138671875">numb</text></g><g transform="translate(0.0,28.0)"><text fill="black" font-family="arial, sans-serif" font-size="12" font-weight="400" x="1.0" y="11.138671875">name</text></g></g><g transform="translate(48.5,3.0)"><g transform="translate(0.0,0.0)"><text fill="black" font-family="arial, sans-serif" font-size="12" font-weight="400" x="1.0" y="11.138671875">integer</text></g><g transform="translate(0.0,14.0)"><text fill="black" font-family="arial, sans-serif" font-size="12" font-weight="400" x="1.0" y="11.138671875">varchar2(10)</text></g><g transform="translate(0.0,28.0)"><text fill="black" font-family="arial, sans-serif" font-size="12" font-weight="400" x="1.0" y="11.138671875">varchar2(50)</text></g></g><g transform="translate(130.75,3.0)"><g transform="translate(0.0,0.0)"><text fill="black" font-family="arial, sans-serif" font-size="12" font-weight="400" x="1.0" y="11.138671875">PK</text></g><g transform="translate(0.0,14.0)"><text fill="black" font-family="arial, sans-serif" font-size="12" font-weight="400" x="1.0" y="11.138671875"/></g><g transform="translate(0.0,28.0)"><text fill="black" font-family="arial, sans-serif" font-size="12" font-weight="400" x="1.0" y="11.138671875"/></g></g></g><polyline fill="none" points="0.0,20.0 0.0,0.0 150.0,0.0 150.0,20.0 0.0,20.0 0.0,73.0 150.0,73.0 150.0,20.0" stroke="#000000" stroke-linejoin="miter"/></g><g class="table" transform="translate(236.0,367.0)"><g transform="translate(0.0,0.0)"><rect fill="#f0f0f0" height="20.0" width="150.0"/></g><g transform="translate(0.0,0.0)"><text fill="black" font-family="arial, sans-serif" font-size="12" font-weight="700" text-anchor="middle" x="76.0" y="14.190625">busStop</text></g><g transform="translate(0.0,20.0)"><rect fill="#ffffff" height="67.0" width="150.0"/><g transform="translate(4.0,3.0)"><g transform="translate(0.0,0.0)"><text fill="black" font-family="arial, sans-serif" font-size="12" font-weight="400" x="1.0" y="11.138671875">id</text></g><g transform="translate(0.0,14.0)"><text fill="black" font-family="arial, sans-serif" font-size="12" font-weight="400" x="1.0" y="11.138671875">name</text></g><g transform="translate(0.0,28.0)"><text fill="black" font-family="arial, sans-serif" font-size="12" font-weight="400" x="1.0" y="11.138671875">latitud</text></g><g transform="translate(0.0,42.0)"><text fill="black" font-family="arial, sans-serif" font-size="12" font-weight="400" x="1.0" y="11.138671875">longit</text></g></g><g transform="translate(48.5,3.0)"><g transform="translate(0.0,0.0)"><text fill="black" font-family="arial, sans-serif" font-size="12" font-weight="400" x="1.0" y="11.138671875">integer</text></g><g transform="translate(0.0,14.0)"><text fill="black" font-family="arial, sans-serif" font-size="12" font-weight="400" x="1.0" y="11.138671875">varchar2(50)</text></g><g transform="translate(0.0,28.0)"><text fill="black" font-family="arial, sans-serif" font-size="12" font-weight="400" x="1.0" y="11.138671875">float(5)</text></g><g transform="translate(0.0,42.0)"><text fill="black" font-family="arial, sans-serif" font-size="12" font-weight="400" x="1.0" y="11.138671875">float(5)</text></g></g><g transform="translate(130.75,3.0)"><g transform="translate(0.0,0.0)"><text fill="black" font-family="arial, sans-serif" font-size="12" font-weight="400" x="1.0" y="11.138671875">PK</text></g><g transform="translate(0.0,14.0)"><text fill="black" font-family="arial, sans-serif" font-size="12" font-weight="400" x="1.0" y="11.138671875"/></g><g transform="translate(0.0,28.0)"><text fill="black" font-family="arial, sans-serif" font-size="12" font-weight="400" x="1.0" y="11.138671875"/></g><g transform="translate(0.0,42.0)"><text fill="black" font-family="arial, sans-serif" font-size="12" font-weight="400" x="1.0" y="11.138671875"/></g></g></g><polyline fill="none" points="0.0,20.0 0.0,0.0 150.0,0.0 150.0,20.0 0.0,20.0 0.0,87.0 150.0,87.0 150.0,20.0" stroke="#000000" stroke-linejoin="miter"/></g><g class="table" transform="translate(384.0,256.0)"><g transform="translate(0.0,0.0)"><rect fill="#f0f0f0" height="20.0" width="193.0"/></g><g transform="translate(0.0,0.0)"><text fill="black" font-family="arial, sans-serif" font-size="12" font-weight="700" text-anchor="middle" x="97.5" y="14.190625">lineStop</text></g><g transform="translate(0.0,20.0)"><rect fill="#ffffff" height="67.0" width="193.0"/><g transform="translate(4.0,3.0)"><g transform="translate(0.0,0.0)"><text fill="black" font-family="arial, sans-serif" font-size="12" font-weight="400" x="1.0" y="11.138671875">id</text></g><g transform="translate(0.0,14.0)"><text fill="black" font-family="arial, sans-serif" font-size="12" font-weight="400" x="1.0" y="11.138671875">busLine_id</text></g><g transform="translate(0.0,28.0)"><text fill="black" font-family="arial, sans-serif" font-size="12" font-weight="400" x="1.0" y="11.138671875">busStop_id</text></g><g transform="translate(0.0,42.0)"><text fill="black" font-family="arial, sans-serif" font-size="12" font-weight="400" x="1.0" y="11.138671875">stop_order</text></g></g><g transform="translate(126.75,3.0)"><g transform="translate(0.0,0.0)"><text fill="black" font-family="arial, sans-serif" font-size="12" font-weight="400" x="1.0" y="11.138671875">integer</text></g><g transform="translate(0.0,14.0)"><text fill="black" font-family="arial, sans-serif" font-size="12" font-weight="400" x="1.0" y="11.138671875">integer</text></g><g transform="translate(0.0,28.0)"><text fill="black" font-family="arial, sans-serif" font-size="12" font-weight="400" x="1.0" y="11.138671875">integer</text></g><g transform="translate(0.0,42.0)"><text fill="black" font-family="arial, sans-serif" font-size="12" font-weight="400" x="1.0" y="11.138671875">integer</text></g></g><g transform="translate(173.75,3.0)"><g transform="translate(0.0,0.0)"><text fill="black" font-family="arial, sans-serif" font-size="12" font-weight="400" x="1.0" y="11.138671875">PK</text></g><g transform="translate(0.0,14.0)"><text fill="black" font-family="arial, sans-serif" font-size="12" font-weight="400" x="1.0" y="11.138671875">FK</text></g><g transform="translate(0.0,28.0)"><text fill="black" font-family="arial, sans-serif" font-size="12" font-weight="400" x="1.0" y="11.138671875">FK</text></g><g transform="translate(0.0,42.0)"><text fill="black" font-family="arial, sans-serif" font-size="12" font-weight="400" x="1.0" y="11.138671875"/></g></g></g><polyline fill="none" points="0.0,20.0 0.0,0.0 193.0,0.0 193.0,20.0 0.0,20.0 0.0,87.0 193.0,87.0 193.0,20.0" stroke="#000000" stroke-linejoin="miter"/></g><g class="table" transform="translate(689.0,505.0)"><g transform="translate(0.0,0.0)"><rect fill="#f0f0f0" height="20.0" width="172.0"/></g><g transform="translate(0.0,0.0)"><text fill="black" font-family="arial, sans-serif" font-size="12" font-weight="700" text-anchor="middle" x="87.0" y="14.190625">schedule</text></g><g transform="translate(0.0,20.0)"><rect fill="#ffffff" height="67.0" width="172.0"/><g transform="translate(4.0,3.0)"><g transform="translate(0.0,0.0)"><text fill="black" font-family="arial, sans-serif" font-size="12" font-weight="400" x="1.0" y="11.138671875">id</text></g><g transform="translate(0.0,14.0)"><text fill="black" font-family="arial, sans-serif" font-size="12" font-weight="400" x="1.0" y="11.138671875">busLine_id</text></g><g transform="translate(0.0,28.0)"><text fill="black" font-family="arial, sans-serif" font-size="12" font-weight="400" x="1.0" y="11.138671875">valid_from</text></g><g transform="translate(0.0,42.0)"><text fill="black" font-family="arial, sans-serif" font-size="12" font-weight="400" x="1.0" y="11.138671875">valid_to</text></g></g><g transform="translate(105.75,3.0)"><g transform="translate(0.0,0.0)"><text fill="black" font-family="arial, sans-serif" font-size="12" font-weight="400" x="1.0" y="11.138671875">integer</text></g><g transform="translate(0.0,14.0)"><text fill="black" font-family="arial, sans-serif" font-size="12" font-weight="400" x="1.0" y="11.138671875">integer</text></g><g transform="translate(0.0,28.0)"><text fill="black" font-family="arial, sans-serif" font-size="12" font-weight="400" x="1.0" y="11.138671875">date</text></g><g transform="translate(0.0,42.0)"><text fill="black" font-family="arial, sans-serif" font-size="12" font-weight="400" x="1.0" y="11.138671875">date</text></g></g><g transform="translate(152.75,3.0)"><g transform="translate(0.0,0.0)"><text fill="black" font-family="arial, sans-serif" font-size="12" font-weight="400" x="1.0" y="11.138671875">PK</text></g><g transform="translate(0.0,14.0)"><text fill="black" font-family="arial, sans-serif" font-size="12" font-weight="400" x="1.0" y="11.138671875">FK</text></g><g transform="translate(0.0,28.0)"><text fill="black" font-family="arial, sans-serif" font-size="12" font-weight="400" x="1.0" y="11.138671875"/></g><g transform="translate(0.0,42.0)"><text fill="black" font-family="arial, sans-serif" font-size="12" font-weight="400" x="1.0" y="11.138671875">N</text></g></g></g><polyline fill="none" points="0.0,20.0 0.0,0.0 172.0,0.0 172.0,20.0 0.0,20.0 0.0,87.0 172.0,87.0 172.0,20.0" stroke="#000000" stroke-linejoin="miter"/></g><g class="table" transform="translate(742.0,242.0)"><g transform="translate(0.0,0.0)"><rect fill="#f0f0f0" height="20.0" width="196.0"/></g><g transform="translate(0.0,0.0)"><text fill="black" font-family="arial, sans-serif" font-size="12" font-weight="700" text-anchor="middle" x="99.0" y="14.190625">route</text></g><g transform="translate(0.0,20.0)"><rect fill="#ffffff" height="54.0" width="196.0"/><g transform="translate(4.0,3.0)"><g transform="translate(0.0,0.0)"><text fill="black" font-family="arial, sans-serif" font-size="12" font-weight="400" x="1.0" y="11.138671875">id</text></g><g transform="translate(0.0,14.0)"><text fill="black" font-family="arial, sans-serif" font-size="12" font-weight="400" x="1.0" y="11.138671875">schedule_id</text></g><g transform="translate(0.0,28.0)"><text fill="black" font-family="arial, sans-serif" font-size="12" font-weight="400" x="1.0" y="11.138671875">start_time</text></g></g><g transform="translate(108.0,3.0)"><g transform="translate(0.0,0.0)"><text fill="black" font-family="arial, sans-serif" font-size="12" font-weight="400" x="1.0" y="11.138671875">integer</text></g><g transform="translate(0.0,14.0)"><text fill="black" font-family="arial, sans-serif" font-size="12" font-weight="400" x="1.0" y="11.138671875">integer</text></g><g transform="translate(0.0,28.0)"><text fill="black" font-family="arial, sans-serif" font-size="12" font-weight="400" x="1.0" y="11.138671875">timestamp</text></g></g><g transform="translate(176.75,3.0)"><g transform="translate(0.0,0.0)"><text fill="black" font-family="arial, sans-serif" font-size="12" font-weight="400" x="1.0" y="11.138671875">PK</text></g><g transform="translate(0.0,14.0)"><text fill="black" font-family="arial, sans-serif" font-size="12" font-weight="400" x="1.0" y="11.138671875">FK</text></g><g transform="translate(0.0,28.0)"><text fill="black" font-family="arial, sans-serif" font-size="12" font-weight="400" x="1.0" y="11.138671875"/></g></g></g><polyline fill="none" points="0.0,20.0 0.0,0.0 196.0,0.0 196.0,20.0 0.0,20.0 0.0,74.0 196.0,74.0 196.0,20.0" stroke="#000000" stroke-linejoin="miter"/></g><g class="table" transform="translate(966.0,513.0)"><g transform="translate(0.0,0.0)"><rect fill="#f0f0f0" height="20.0" width="199.0"/></g><g transform="translate(0.0,0.0)"><text fill="black" font-family="arial, sans-serif" font-size="12" font-weight="700" text-anchor="middle" x="100.5" y="14.190625">bus</text></g><g transform="translate(0.0,20.0)"><rect fill="#ffffff" height="53.0" width="199.0"/><g transform="translate(4.0,3.0)"><g transform="translate(0.0,0.0)"><text fill="black" font-family="arial, sans-serif" font-size="12" font-weight="400" x="1.0" y="11.138671875">id</text></g><g transform="translate(0.0,14.0)"><text fill="black" font-family="arial, sans-serif" font-size="12" font-weight="400" x="1.0" y="11.138671875">bus_registratio</text></g><g transform="translate(0.0,28.0)"><text fill="black" font-family="arial, sans-serif" font-size="12" font-weight="400" x="1.0" y="11.138671875">bus_model</text></g></g><g transform="translate(97.5,3.0)"><g transform="translate(0.0,0.0)"><text fill="black" font-family="arial, sans-serif" font-size="12" font-weight="400" x="1.0" y="11.138671875">integer</text></g><g transform="translate(0.0,14.0)"><text fill="black" font-family="arial, sans-serif" font-size="12" font-weight="400" x="1.0" y="11.138671875">varchar2(30)</text></g><g transform="translate(0.0,28.0)"><text fill="black" font-family="arial, sans-serif" font-size="12" font-weight="400" x="1.0" y="11.138671875">varchar2(30)</text></g></g><g transform="translate(179.75,3.0)"><g transform="translate(0.0,0.0)"><text fill="black" font-family="arial, sans-serif" font-size="12" font-weight="400" x="1.0" y="11.138671875">PK</text></g><g transform="translate(0.0,14.0)"><text fill="black" font-family="arial, sans-serif" font-size="12" font-weight="400" x="1.0" y="11.138671875"/></g><g transform="translate(0.0,28.0)"><text fill="black" font-family="arial, sans-serif" font-size="12" font-weight="400" x="1.0" y="11.138671875"/></g></g></g><polyline fill="none" points="0.0,20.0 0.0,0.0 199.0,0.0 199.0,20.0 0.0,20.0 0.0,73.0 199.0,73.0 199.0,20.0" stroke="#000000" stroke-linejoin="miter"/></g><g class="table" transform="translate(564.0,117.0)"><g transform="translate(0.0,0.0)"><rect fill="#f0f0f0" height="20.0" width="226.0"/></g><g transform="translate(0.0,0.0)"><text fill="black" font-family="arial, sans-serif" font-size="12" font-weight="700" text-anchor="middle" x="114.0" y="14.190625">departureTime</text></g><g transform="translate(0.0,20.0)"><rect fill="#ffffff" height="72.0" width="226.0"/><g transform="translate(4.0,3.0)"><g transform="translate(0.0,0.0)"><text fill="black" font-family="arial, sans-serif" font-size="12" font-weight="400" x="1.0" y="11.138671875">id</text></g><g transform="translate(0.0,14.0)"><text fill="black" font-family="arial, sans-serif" font-size="12" font-weight="400" x="1.0" y="11.138671875">route_id</text></g><g transform="translate(0.0,28.0)"><text fill="black" font-family="arial, sans-serif" font-size="12" font-weight="400" x="1.0" y="11.138671875">lineStop_id</text></g><g transform="translate(0.0,42.0)"><text fill="black" font-family="arial, sans-serif" font-size="12" font-weight="400" x="1.0" y="11.138671875">departure_time</text></g></g><g transform="translate(138.0,3.0)"><g transform="translate(0.0,0.0)"><text fill="black" font-family="arial, sans-serif" font-size="12" font-weight="400" x="1.0" y="11.138671875">integer</text></g><g transform="translate(0.0,14.0)"><text fill="black" font-family="arial, sans-serif" font-size="12" font-weight="400" x="1.0" y="11.138671875">integer</text></g><g transform="translate(0.0,28.0)"><text fill="black" font-family="arial, sans-serif" font-size="12" font-weight="400" x="1.0" y="11.138671875">integer</text></g><g transform="translate(0.0,42.0)"><text fill="black" font-family="arial, sans-serif" font-size="12" font-weight="400" x="1.0" y="11.138671875">timestamp</text></g></g><g transform="translate(206.75,3.0)"><g transform="translate(0.0,0.0)"><text fill="black" font-family="arial, sans-serif" font-size="12" font-weight="400" x="1.0" y="11.138671875">PK</text></g><g transform="translate(0.0,14.0)"><text fill="black" font-family="arial, sans-serif" font-size="12" font-weight="400" x="1.0" y="11.138671875">FK</text></g><g transform="translate(0.0,28.0)"><text fill="black" font-family="arial, sans-serif" font-size="12" font-weight="400" x="1.0" y="11.138671875">FK</text></g><g transform="translate(0.0,42.0)"><text fill="black" font-family="arial, sans-serif" font-size="12" font-weight="400" x="1.0" y="11.138671875"/></g></g></g><polyline fill="none" points="0.0,20.0 0.0,0.0 226.0,0.0 226.0,20.0 0.0,20.0 0.0,92.0 226.0,92.0 226.0,20.0" stroke="#000000" stroke-linejoin="miter"/></g><g class="table" transform="translate(941.0,373.0)"><g transform="translate(0.0,0.0)"><rect fill="#f0f0f0" height="20.0" width="139.0"/></g><g transform="translate(0.0,0.0)"><text fill="black" font-family="arial, sans-serif" font-size="12" font-weight="700" text-anchor="middle" x="70.5" y="14.190625">busRoute</text></g><g transform="translate(0.0,20.0)"><rect fill="#ffffff" height="40.0" width="139.0"/><g transform="translate(4.0,3.0)"><g transform="translate(0.0,0.0)"><text fill="black" font-family="arial, sans-serif" font-size="12" font-weight="400" x="1.0" y="11.138671875">bus_id</text></g><g transform="translate(0.0,14.0)"><text fill="black" font-family="arial, sans-serif" font-size="12" font-weight="400" x="1.0" y="11.138671875">route_i</text></g></g><g transform="translate(54.25,3.0)"><g transform="translate(0.0,0.0)"><text fill="black" font-family="arial, sans-serif" font-size="12" font-weight="400" x="1.0" y="11.138671875">integer</text></g><g transform="translate(0.0,14.0)"><text fill="black" font-family="arial, sans-serif" font-size="12" font-weight="400" x="1.0" y="11.138671875">integer</text></g></g><g transform="translate(101.25,3.0)"><g transform="translate(0.0,0.0)"><text fill="black" font-family="arial, sans-serif" font-size="12" font-weight="400" x="1.0" y="11.138671875">PK FK</text></g><g transform="translate(0.0,14.0)"><text fill="black" font-family="arial, sans-serif" font-size="12" font-weight="400" x="1.0" y="11.138671875">PK FK</text></g></g></g><polyline fill="none" points="0.0,20.0 0.0,0.0 139.0,0.0 139.0,20.0 0.0,20.0 0.0,60.0 139.0,60.0 139.0,20.0" stroke="#000000" stroke-linejoin="miter"/></g><g class="note" transform="translate(20.0,54.0)"><polygon fill="#fff9c3" points="468.0,0.0 0.0,0.0 0.0,187.0 483.0,187.0 483.0,15.0 468.0,15.0 468.0,0.0" stroke="#000000" stroke-linejoin="bevel"/><polygon fill="#fff9c3" points="468.0,0.0 483.0,15.0 468.0,15.0 468.0,0.0" stroke="#000000" stroke-linejoin="bevel"/><g transform="translate(5.0,5.0)"><g transform="translate(0.0,0.0)"><text fill="black" font-family="arial, sans-serif" font-size="12" font-weight="400" x="1.0" y="11.138671875">| line_id | stop_id | stop_order |</text></g><g transform="translate(0.0,14.0)"><text fill="black" font-family="arial, sans-serif" font-size="12" font-weight="400" x="1.0" y="11.138671875">|---------|---------|------------|</text></g><g transform="translate(0.0,28.0)"><text fill="black" font-family="arial, sans-serif" font-size="12" font-weight="400" x="1.0" y="11.138671875">| 1       | 101     | 1          |  -- Line 1, first stop is stop 101</text></g><g transform="translate(0.0,42.0)"><text fill="black" font-family="arial, sans-serif" font-size="12" font-weight="400" x="1.0" y="11.138671875">| 1       | 102     | 2          |  -- Line 1, second stop is stop 102</text></g><g transform="translate(0.0,56.0)"><text fill="black" font-family="arial, sans-serif" font-size="12" font-weight="400" x="1.0" y="11.138671875">| 1       | 103     | 3          |  -- Line 1, third stop is stop 103</text></g><g transform="translate(0.0,70.0)"><text fill="black" font-family="arial, sans-serif" font-size="12" font-weight="400" x="1.0" y="11.138671875">| 2       | 102     | 1          |  -- Line 2, first stop is stop 102</text></g><g transform="translate(0.0,84.0)"><text fill="black" font-family="arial, sans-serif" font-size="12" font-weight="400" x="1.0" y="11.138671875">| 2       | 104     | 2          |  -- Line 2, second stop is stop 104</text></g><g transform="translate(0.0,98.0)"><text fill="black" font-family="arial, sans-serif" font-size="12" font-weight="400" x="1.0" y="11.138671875">| 3       | 105     | 1          |  -- Line 3, first stop is stop 105</text></g><g transform="translate(0.0,112.0)"><text fill="black" font-family="arial, sans-serif" font-size="12" font-weight="400" x="1.0" y="11.138671875">| 3       | 106     | 2          |  -- Line 3, second stop is stop 106</text></g><g transform="translate(0.0,126.0)"><text fill="black" font-family="arial, sans-serif" font-size="12" font-weight="400" x="1.0" y="11.138671875">| 3       | 101     | 3          |  -- Line 3, third stop is stop 101</text></g><g transform="translate(0.0,140.0)"><text fill="black" font-family="arial, sans-serif" font-size="12" font-weight="400" x="1.0" y="11.138671875">| 4       | 107     | 1          |  -- Line 4, first stop is stop 107</text></g><g transform="translate(0.0,154.0)"><text fill="black" font-family="arial, sans-serif" font-size="12" font-weight="400" x="1.0" y="11.138671875">| 4       | 108     | 2          |  -- Line 4, second stop is stop 108</text></g></g></g><g class="note" transform="translate(864.0,20.0)"><polygon fill="#fff9c3" points="507.0,0.0 0.0,0.0 0.0,215.0 522.0,215.0 522.0,15.0 507.0,15.0 507.0,0.0" stroke="#000000" stroke-linejoin="bevel"/><polygon fill="#fff9c3" points="507.0,0.0 522.0,15.0 507.0,15.0 507.0,0.0" stroke="#000000" stroke-linejoin="bevel"/><g transform="translate(5.0,5.0)"><g transform="translate(0.0,0.0)"><text fill="black" font-family="arial, sans-serif" font-size="12" font-weight="400" x="1.0" y="11.138671875">BUS_LINE:</text></g><g transform="translate(0.0,14.0)"><text fill="black" font-family="arial, sans-serif" font-size="12" font-weight="400" x="1.0" y="11.138671875">id: 1, number: "178", name: "PKP Ursus - Konotopa"</text></g><g transform="translate(0.0,28.0)"><text fill="black" font-family="arial, sans-serif" font-size="12" font-weight="400" x="1.0" y="11.138671875">BUS_STOP:</text></g><g transform="translate(0.0,42.0)"><text fill="black" font-family="arial, sans-serif" font-size="12" font-weight="400" x="1.0" y="11.138671875">id: 10, name: "Centralna", latitude: 52.23, longitude: 21.01</text></g><g transform="translate(0.0,56.0)"><text fill="black" font-family="arial, sans-serif" font-size="12" font-weight="400" x="1.0" y="11.138671875">LINE_STOP:</text></g><g transform="translate(0.0,70.0)"><text fill="black" font-family="arial, sans-serif" font-size="12" font-weight="400" x="1.0" y="11.138671875">busLine_id: 1, busStop_id: 10, stop_order: 5</text></g><g transform="translate(0.0,84.0)"><text fill="black" font-family="arial, sans-serif" font-size="12" font-weight="400" x="1.0" y="11.138671875">SCHEDULE:</text></g><g transform="translate(0.0,98.0)"><text fill="black" font-family="arial, sans-serif" font-size="12" font-weight="400" x="1.0" y="11.138671875">id: 50, busLine_id: 1, valid_from: '2023-01-01', valid_to: NULL</text></g><g transform="translate(0.0,112.0)"><text fill="black" font-family="arial, sans-serif" font-size="12" font-weight="400" x="1.0" y="11.138671875">ROUTE:</text></g><g transform="translate(0.0,126.0)"><text fill="black" font-family="arial, sans-serif" font-size="12" font-weight="400" x="1.0" y="11.138671875">id: 100, schedule_id: 50, start_time: '06:00:00', operating_date: '2024-03-15',</text></g><g transform="translate(0.0,140.0)"><text fill="black" font-family="arial, sans-serif" font-size="12" font-weight="400" x="1.0" y="11.138671875">bus_id: 20</text></g><g transform="translate(0.0,154.0)"><text fill="black" font-family="arial, sans-serif" font-size="12" font-weight="400" x="1.0" y="11.138671875">id: 101, schedule_id: 50, start_time: '06:30:00', operating_date: '2024-03-15',</text></g><g transform="translate(0.0,168.0)"><text fill="black" font-family="arial, sans-serif" font-size="12" font-weight="400" x="1.0" y="11.138671875">bus_id: 21</text></g><g transform="translate(0.0,182.0)"><text fill="black" font-family="arial, sans-serif" font-size="12" font-weight="400" x="1.0" y="11.138671875">DEPARTURE_TIME:</text></g><g transform="translate(0.0,196.0)"><text fill="black" font-family="arial, sans-serif" font-size="12" font-weight="400" x="1.0" y="11.138671875">id: 200, route_id: 100, busStop_id: 10, departure_time: '06:25:00'</text></g></g></g><g transform="translate(1230.0,602.0)"><svg height="40" width="166"><svg xmlns:xlink="http://www.w3.org/1999/xlink" enable-background="new 0 0 487.7 116.5" id="Layer_1" version="1.0" viewBox="0 0 487.7 116.5" x="0px" xml:space="preserve" xmlns="http://www.w3.org/2000/svg" y="0px">
<g>
	<path d="M146.3,28.6c2.2-0.3,4.5-0.5,6.7-0.5c1.9,0,4,0.2,6.1,0.5l3.8,47l20.6-47c2-0.3,4.1-0.5,6.3-0.5   c2.2,0,4.3,0.2,6.4,0.5l-28.4,59.8c-2.5,0.3-4.9,0.5-7.3,0.5c-1.1,0-2.2,0-3.2-0.1c-1.1-0.1-2.2-0.2-3.5-0.4L146.3,28.6z" fill="#222323"/>
	<path d="M198.6,72.1c0.3,2.7,1.2,4.6,2.7,5.9c1.4,1.3,3.5,2,6.3,2c2.2,0,4.2-0.2,5.9-0.7c1.7-0.5,3.5-1.1,5.4-1.9   c0.9,1.1,1.5,2.5,1.8,4c0.3,1.6,0.5,3.3,0.5,5c-0.9,0.4-2,0.8-3.3,1.2c-1.2,0.4-2.5,0.7-3.9,0.9c-1.3,0.2-2.7,0.4-4,0.6   c-1.3,0.1-2.5,0.2-3.6,0.2c-3.4,0-6.3-0.4-8.7-1.2c-2.4-0.8-4.4-2-6-3.5c-1.6-1.5-2.7-3.4-3.5-5.6c-0.7-2.2-1.1-4.6-1.1-7.3   c0-3.4,0.6-6.7,1.7-10c1.2-3.3,2.8-6.2,5-8.8c2.1-2.6,4.7-4.7,7.8-6.2c3.1-1.6,6.5-2.4,10.4-2.4c1.8,0,3.5,0.2,5.1,0.7   c1.6,0.4,3,1.1,4.1,2c1.2,0.9,2.1,2,2.7,3.4c0.7,1.3,1,2.9,1,4.7c0,2.5-0.6,4.7-1.7,6.5c-1.2,1.8-2.7,3.4-4.7,4.7   c-1.9,1.3-4.1,2.3-6.6,3.1c-2.5,0.8-5,1.4-7.7,1.8L198.6,72.1z M203.3,63.6c2.1-0.3,3.8-0.8,5.2-1.3c1.3-0.5,2.4-1.1,3.2-1.7   c0.8-0.6,1.3-1.3,1.6-2c0.3-0.7,0.4-1.3,0.4-2c0-1.1-0.3-1.9-1-2.6c-0.7-0.7-1.6-1-2.8-1c-1.4,0-2.8,0.3-4,1   c-1.2,0.6-2.2,1.5-3.1,2.5c-0.9,1.1-1.7,2.3-2.3,3.6c-0.6,1.4-1.1,2.7-1.5,4.1L203.3,63.6z" fill="#222323"/>
	<path d="M231.5,63.9c0.6-3.5,1.1-6.6,1.4-9.3c0.3-2.7,0.5-4.8,0.5-6.3c0-0.6,0-1.1,0-1.5s0-0.9-0.1-1.4   c1.8-0.3,3.7-0.5,5.5-0.5c0.8,0,1.7,0,2.5,0.1c0.8,0.1,1.7,0.2,2.7,0.4c0.1,0.4,0.2,1,0.3,1.6c0.1,0.6,0.2,1.5,0.2,2.7   c0,0.5,0,1,0,1.5c0,0.5-0.1,1.1-0.2,1.8c0.6-1,1.2-2,2.1-3c0.8-1,1.8-1.8,2.8-2.6c1-0.8,2.2-1.4,3.4-1.9c1.2-0.5,2.6-0.7,4.1-0.7   c1.2,0,2.2,0.1,3,0.4c0.1,0.2,0.1,0.4,0.1,0.7c0,0.2,0,0.5,0,0.7c0,1.6-0.2,3.2-0.6,4.8c-0.4,1.7-0.9,3.1-1.6,4.2   c-0.3-0.1-0.7-0.1-1.1-0.2c-0.4-0.1-0.9-0.1-1.5-0.1c-2.3,0-4.1,0.4-5.6,1.2c-1.5,0.8-2.7,1.9-3.6,3.3c-0.9,1.4-1.7,3.1-2.2,5.1   c-0.6,2-1.1,4.2-1.5,6.7l-3.1,16.7c-2.2,0.3-4.2,0.5-6.1,0.5c-1.9,0-3.9-0.2-5.7-0.5L231.5,63.9z" fill="#222323"/>
	<path d="M269.7,54.4h-6.4c0-1.5,0.1-3,0.3-4.4c0.2-1.4,0.6-3,1.2-4.6h6.4l0.5-2.5c0.3-1.4,0.4-2.7,0.5-4   c0.1-1.2,0.1-2.3,0.1-3.1c1.4-0.9,3.2-1.6,5.4-2c2.2-0.4,4.2-0.6,6-0.6c0.3,0.8,0.4,1.9,0.4,3.2c0,0.9-0.1,1.8-0.2,2.9   c-0.1,1-0.3,2.2-0.5,3.4l-0.5,2.7h10.3c0,1.7-0.1,3.2-0.4,4.6c-0.3,1.4-0.7,2.9-1.2,4.4h-10.3l-2.9,16.4c-0.1,0.8-0.2,1.5-0.3,2.2   c-0.1,0.7-0.1,1.3-0.1,1.9c0,1.4,0.3,2.6,1,3.4c0.7,0.8,1.9,1.2,3.7,1.2c0.9,0,1.8-0.1,2.5-0.2c0.7-0.1,1.4-0.3,2-0.5   c0.7,1.6,1.1,3.7,1.1,6.3c0,0.4,0,0.9,0,1.3c0,0.4,0,0.9-0.1,1.3c-2.4,0.7-5.2,1.1-8.6,1.1c-4.7,0-8.1-0.9-10.4-2.6   c-2.2-1.7-3.4-4.6-3.4-8.7c0-0.8,0.1-1.7,0.2-2.6c0.1-0.9,0.2-1.9,0.4-2.9L269.7,54.4z" fill="#222323"/>
	<path d="M331.9,69.8c-0.6,3.5-1.1,6.6-1.3,9.3c-0.3,2.7-0.4,4.8-0.4,6.3c0,0.6,0,1.1,0,1.5s0,0.9,0.1,1.4   c-1.8,0.3-3.6,0.5-5.4,0.5c-1.6,0-3.3-0.2-5.2-0.5c-0.1-0.4-0.2-1-0.3-1.6c-0.1-0.6-0.2-1.5-0.2-2.7c0-0.5,0-1,0-1.6   c0-0.6,0.1-1.2,0.2-1.9c-1.6,2.6-3.7,4.7-6.2,6.4c-2.5,1.7-5.4,2.6-8.7,2.6c-3.7,0-6.4-1.2-8.2-3.5c-1.8-2.3-2.7-5.4-2.7-9.2   c0-4.2,0.6-8.2,1.9-12.1c1.2-3.9,3.1-7.3,5.6-10.3c2.5-3,5.5-5.4,9.2-7.2c3.7-1.8,7.9-2.7,12.8-2.7c2.4,0,4.7,0.2,6.8,0.5   c2.1,0.3,4.2,0.8,6.2,1.4L331.9,69.8z M323.3,54.3c-0.5-0.1-1-0.2-1.5-0.2c-0.5,0-0.9,0-1.4,0c-2.7,0-4.9,0.7-6.8,2   c-1.9,1.3-3.4,3-4.6,5c-1.2,2-2.1,4.1-2.7,6.4c-0.6,2.3-0.8,4.4-0.8,6.3c0,4.1,1.4,6.2,4.1,6.2c2.7,0,5.1-1.6,7.4-4.9   c2.3-3.2,3.9-7.8,5-13.7L323.3,54.3z" fill="#222323"/>
	<path d="M344.9,43.7c1-5.8,1.5-10.2,1.5-13.2c0-0.6,0-1.1,0-1.5c0-0.4-0.1-0.9-0.1-1.4c0.9-0.2,2-0.3,3.2-0.4   c1.2-0.1,2.3-0.1,3.2-0.1c1.6,0,3.4,0.2,5.3,0.5c0.3,0.8,0.4,1.9,0.4,3.2c0,2.4-0.3,5.4-1,8.9l-2.1,11.6c0.7-0.8,1.4-1.7,2.2-2.5   c0.8-0.8,1.7-1.5,2.8-2.2c1.1-0.7,2.3-1.2,3.7-1.6c1.4-0.4,3-0.6,4.8-0.6c3.9,0,6.9,1.3,8.9,4c2.1,2.7,3.1,6.5,3.1,11.6   c0,3.4-0.5,6.9-1.5,10.4c-1,3.5-2.7,6.7-5,9.5c-2.4,2.8-5.5,5.1-9.4,6.9c-3.9,1.8-8.7,2.7-14.4,2.7c-2.6,0-5-0.2-7.2-0.7   c-2.2-0.4-4.2-1.1-6.2-1.8L344.9,43.7z M350.4,79.1c0.4,0.2,1,0.3,1.7,0.4c0.7,0.1,1.4,0.1,2.1,0.1c2.4,0,4.5-0.6,6.3-1.7   c1.7-1.1,3.2-2.6,4.3-4.3c1.1-1.7,2-3.7,2.5-5.8c0.5-2.1,0.8-4.2,0.8-6.2c0-1.9-0.4-3.6-1.2-5c-0.8-1.4-2.2-2.1-4.1-2.1   c-2.6,0-4.7,1.1-6.6,3.2c-1.8,2.2-3.2,5.7-4,10.7L350.4,79.1z" fill="#222323"/>
	<path d="M395.7,72.1c0.3,2.7,1.2,4.6,2.7,5.9c1.4,1.3,3.5,2,6.3,2c2.2,0,4.2-0.2,5.9-0.7c1.7-0.5,3.5-1.1,5.4-1.9   c0.9,1.1,1.5,2.5,1.8,4c0.3,1.6,0.5,3.3,0.5,5c-0.9,0.4-2,0.8-3.3,1.2c-1.2,0.4-2.5,0.7-3.9,0.9c-1.3,0.2-2.7,0.4-4,0.6   c-1.3,0.1-2.5,0.2-3.6,0.2c-3.4,0-6.3-0.4-8.7-1.2c-2.4-0.8-4.4-2-6-3.5c-1.6-1.5-2.7-3.4-3.5-5.6c-0.7-2.2-1.1-4.6-1.1-7.3   c0-3.4,0.6-6.7,1.7-10c1.2-3.3,2.8-6.2,5-8.8c2.1-2.6,4.7-4.7,7.8-6.2c3.1-1.6,6.5-2.4,10.4-2.4c1.8,0,3.5,0.2,5.1,0.7   c1.6,0.4,3,1.1,4.1,2c1.2,0.9,2.1,2,2.7,3.4c0.7,1.3,1,2.9,1,4.7c0,2.5-0.6,4.7-1.7,6.5c-1.2,1.8-2.7,3.4-4.7,4.7   c-1.9,1.3-4.1,2.3-6.6,3.1c-2.5,0.8-5,1.4-7.7,1.8L395.7,72.1z M400.5,63.6c2.1-0.3,3.8-0.8,5.2-1.3c1.3-0.5,2.4-1.1,3.2-1.7   c0.8-0.6,1.3-1.3,1.6-2c0.3-0.7,0.4-1.3,0.4-2c0-1.1-0.3-1.9-1-2.6c-0.7-0.7-1.6-1-2.8-1c-1.4,0-2.8,0.3-4,1   c-1.2,0.6-2.2,1.5-3.1,2.5c-0.9,1.1-1.7,2.3-2.3,3.6c-0.6,1.4-1.1,2.7-1.5,4.1L400.5,63.6z" fill="#222323"/>
	<path d="M430.8,43.7c0.6-2.9,1-5.5,1.3-7.7c0.2-2.2,0.4-4,0.4-5.5c0-0.6,0-1.1,0-1.5c0-0.4-0.1-0.9-0.1-1.4   c0.9-0.2,2-0.3,3.2-0.4c1.2-0.1,2.3-0.1,3.2-0.1c1.6,0,3.4,0.2,5.3,0.5c0.3,0.8,0.4,1.9,0.4,3.2c0,1.2-0.1,2.5-0.3,4   c-0.2,1.5-0.5,3.1-0.8,4.9l-6.4,33.5c-0.2,0.9-0.2,1.7-0.2,2.3c0,0.9,0.1,1.6,0.4,2.1s0.6,0.9,1,1.2c0.4,0.3,0.8,0.5,1.3,0.5   c0.5,0.1,1,0.1,1.5,0.1c0.2,0,0.6,0,1.2-0.1c0.6-0.1,1.2-0.2,1.7-0.4c0.3,0.9,0.5,2,0.7,3.1c0.2,1.1,0.3,2.2,0.3,3.4   c0,0.4,0,0.9,0,1.2c0,0.4-0.1,0.8-0.1,1.2c-0.8,0.3-1.9,0.6-3.2,0.8c-1.3,0.2-2.8,0.3-4.4,0.3c-3.8,0-6.7-0.9-8.9-2.8   c-2.2-1.9-3.2-4.8-3.2-8.8c0-0.8,0.1-1.6,0.2-2.5c0.1-0.9,0.2-1.8,0.4-2.7L430.8,43.7z" fill="#222323"/>
	<path d="M463.5,89.4c-5.7,0-9.9-1.5-12.6-4.5c-2.7-3-4-7.1-4-12.3c0-3.3,0.5-6.7,1.5-10c1-3.4,2.5-6.4,4.5-9.1   c2-2.7,4.5-4.9,7.5-6.6c3-1.7,6.6-2.5,10.6-2.5c5.8,0,10,1.5,12.7,4.6c2.7,3.1,4,7.2,4,12.4c0,3.4-0.5,6.8-1.5,10.2   c-1,3.3-2.5,6.3-4.5,9c-2,2.7-4.5,4.8-7.6,6.4C471.2,88.6,467.6,89.4,463.5,89.4z M464.6,80.4c2.1,0,3.9-0.7,5.3-2   c1.4-1.3,2.6-3,3.5-5c0.9-2,1.6-4,2-6.2c0.4-2.2,0.6-4.2,0.6-5.9c0-5.1-2.1-7.7-6.2-7.7c-2.1,0-3.9,0.7-5.2,2.1   c-1.4,1.4-2.5,3.1-3.4,5.1c-0.9,2-1.5,4.1-1.9,6.3c-0.4,2.2-0.5,4.2-0.5,5.9C458.7,77.9,460.7,80.4,464.6,80.4z" fill="#222323"/>
</g>
<g>
	<polygon fill="#D15197" points="16.6,38.9 31,61.4 31,61.4 47.1,42.1 32.1,20.3  "/>
	<path d="M12.6,32.7C13.5,31.6,21,22.6,28,14.4L18,0h-7.2L0,13L12.6,32.7z" fill="#D15197"/>
	<path d="M34.9,67.5l16,25c0.9-1.1,7.8-9.3,17-20.3L51.2,48L34.9,67.5z" fill="#D15197"/>
	<polygon fill="#D15197" points="72.1,78.1 54.9,98.7 54.9,98.6 66.4,116.5 81.9,92.2  "/>
	<path d="M69.5,26.1L51.3,48l0,0L68,72.2c0,0,0,0,0,0c5.5-6.6,11.9-14.2,18.3-21.9L69.5,26.1z" fill="#5D2F87"/>
	<polygon fill="#5D2F87" points="90.4,56.2 72.1,78.1 72.1,78.1 81.9,92.2 81.9,92.2 97.9,67.1  "/>
	<polygon fill="#5D2F87" points="51.4,0 49,0 32.1,20.3 32.1,20.3 47.1,42.1 47.2,42 65.4,20.2  "/>
	<path d="M18.1,0L18.1,0L28,14.4c0,0,0,0,0-0.1C34.2,6.9,40,0,40,0H18.1z" fill="#5D2F87"/>
	<polygon fill="#25B6EA" points="51.5,0 51.4,0 65.4,20.2 65.4,20.2 82.3,0  "/>
	<path d="M88.5,3.4L69.5,26.1l0,0l16.7,24.1c0,0,0,0,0,0c6.5-7.8,13.1-15.7,19-22.7L88.5,3.4z" fill="#25B6EA"/>
	<polygon fill="#25B6EA" points="109.4,33.4 90.4,56.2 90.4,56.2 97.9,67.1 97.9,67.1 114.6,41  "/>
	<path d="M121.8,0H91.3l-2.7,3.3l-0.1,0.1l16.8,24.1c0,0,0.1-0.1,0.1-0.1C116.5,14,125,3.9,125,3.9L121.8,0z" fill="#93C149"/>
	<polygon fill="#93C149" points="129.5,9.3 109.5,33.3 109.4,33.4 114.6,41 114.7,40.9 132.5,13  "/>
</g>
</svg></svg></g></g></svg>